<?xml version="1.0" encoding="utf-8"?>
<!-- Generator: Adobe Illustrator 18.1.1, SVG Export Plug-In . SVG Version: 6.00 Build 0)  -->
<svg version="1.1" xmlns="http://www.w3.org/2000/svg" xmlns:xlink="http://www.w3.org/1999/xlink" x="0px" y="0px" width="185px"
	 height="54px" viewBox="0 0 185 54" enable-background="new 0 0 185 54" xml:space="preserve">
<g id="Layer_3">
	<rect x="-30" y="4.2" fill="none" width="284.7" height="139.8"/>
	<text transform="matrix(1 0 0 1 40.8975 31.433)"><tspan x="0" y="0" fill="#FFFFFF" font-family="'Georgia'" font-size="36">P</tspan><tspan x="21.1" y="0" fill="#FFFFFF" font-family="'Georgia'" font-size="36">almetto</tspan><tspan x="1.7" y="20" fill="#FFFFFF" font-family="'Georgia'" font-size="11" letter-spacing="3">Pressure Clean</tspan></text>
</g>
<g id="Layer_1">
</g>
<g id="Layer_2">
	<path fill="#FFFFFF" stroke="#FFFFFF" stroke-miterlimit="10" d="M18.2,50.8c0.8-1,3.1-0.7,2.1-2.9h2.3c-0.6-0.7-1.1-1.2-1.8-2.1
		c1.3,0.3,2.4,0.6,3.6,0.9c2-10.2-0.2-19.8-3.5-29.4c-2.7,1.4-2.4,3.7-2.5,6c-2.4-1.5-3-3.7-2.7-6.4c-2.6,0.7-4.2,2.5-5.9,4.2
		c-1-1.4-1-3.2,0.4-4.5c1.1-1.1,2.6-2,3.7-2.9c-1.5-0.5-3.1-0.4-4.8,0.4c-1.5,0.8-3,1.7-4.5,2.6c-0.3-1.9,1-4.2,3-5.2
		c2.1-1,4.2-1.2,6.5-1.1c0.4,0,0.9,0,1.3,0c-0.6-1.7-2.6-2.5-7.6-3.2c0.9-1.3,4.4-1.8,5.9-1.4c2.2,0.6,3.6,2.1,4.9,4
		c2-2.3,3.8-4.6,7.1-4.8c1.8-0.1,3.3,0.5,5,1.6c-3.2,0.7-6.1,1.6-8.2,4.3c3.2-0.2,6.3-0.9,9.2,0.9c0.7,0.4,1.1,1.1,1.9,1.9
		c-3.4-0.2-6.4-0.3-9.5-0.5c0,0.1,0,0.2-0.1,0.4c2.7,1,5.2,2.1,6,5.6c-2.5-1.2-4.8-2.4-7.6-2.3c3.7,9.3,5.7,18.8,5.5,28.8
		c0.7-0.3,1.3-0.6,1.9-0.8c0,0,0.1,0.1,0.1,0.1c-0.9,0.8-1.7,1.6-2.6,2.4c0,0.1,0,0.1,0.1,0.2c1.9-0.2,3.7-0.5,5.9-0.7
		c-0.5,1.1-1,1.9-1.4,2.8c0.5,0.3,0.9,0.6,1.5,1H18.2z"/>
</g>
</svg>
